# xmcd CD database file
# Copyright (C) 1993-1998 Ti Kan
#
# Track frame offsets:
# 	150
# 	9315
# 	22108
# 	36315
# 	58758
# 	76038
# 	101685
# 	116065
# 	138053
# 	153800
# 	169843
# 	190680
# 	211895
# 	223025
# 	246610
# 	261893
# 	275920
# 	287645
# 	308795
# 	327803
#
# Disc length: 4668 seconds
#
# Revision: 1
# Processed by: cddbd v1.4b41PL1 Copyright (c) Steve Scherf et al.
# Submitted via: DiscPlay 3.4.1
#
DISCID=20123a14
DTITLE=Various Artist - atomic theory records 10th anniversary collection
DYEAR=1900
DGENRE=
TTITLE0=Hard Times - BOILED IN LEAD
TTITLE1=Snow on the Hills (instr): BOILED IN LEAD
TTITLE2=Slick Chick: ROGERS/HICKEY/SUMLIN
TTITLE3=When it Comes to Love: ROGERS/HICKEY/SUMLIN
TTITLE4=Some Summer Day: PHIL HEYWOOD
TTITLE5=Carry On: IPSO FACTO
TTITLE6=Madman Mora Blues: BOILED IN LEAD
TTITLE7=Cuz Mapfumo: BOILED IN LEAD
TTITLE8=The Craziest Things: THE CROPS
TTITLE9=Right Behind You, Baby: THE CROPS
TTITLE10=Carry On: IPSO FACTO
TTITLE11=Sarai Ondact/Blue Monk: THE NEW INTERNATIONAL TRIO
TTITLE12=He's a Man: WILLIE MURPHY
TTITLE13=Somewhere Down the Line: WILLIE MURPHY
TTITLE14=Living All Day With The Blues: BECKY THOMPSON
TTITLE15=After All This Time: BECKY THOMPSON
TTITLE16=House-Husband's Lament (Rockin - The Cradle): BOILED IN LEAD
TTITLE17=Shamrock Shore: BOILED IN LEAD
TTITLE18=Living in a Rich Man's World: LARRY LONG
TTITLE19=Fairy Tale: WILLIE MURPHY
EXTD=
EXTT0=
EXTT1=
EXTT2=
EXTT3=
EXTT4=
EXTT5=
EXTT6=
EXTT7=
EXTT8=
EXTT9=
EXTT10=
EXTT11=
EXTT12=
EXTT13=
EXTT14=
EXTT15=
EXTT16=
EXTT17=
EXTT18=
EXTT19=
PLAYORDER=
